# xmcd CD database file
#
# Track frame offsets:
#	150
#	21301
#	40439
#	62645
#	85579
#	110551
#	136587
#	144229
#	162912
#	184958
#
# Disc length: 2897 seconds
#
# Revision: 0
# Processed by: cddbd v1.5.1PL0 Copyright (c) Steve Scherf et al.
# Submitted via: CDex 1.51
#
DISCID=810b4f0a
DTITLE=quartza-quartza - Silica
DYEAR=2005
DGENRE=Pop
TTITLE0=ぼくはパズル
TTITLE1=さなぎとつぼみたちへ
TTITLE2=たそがれの庭
TTITLE3=凍てつく森
TTITLE4=砂の城
TTITLE5=１２
TTITLE6=SiO2
TTITLE7=船の家
TTITLE8=きれい。
TTITLE9=Message
EXTD=YEAR: 2005
EXTT0=
EXTT1=
EXTT2=
EXTT3=
EXTT4=
EXTT5=
EXTT6=
EXTT7=
EXTT8=
EXTT9=
PLAYORDER=
